<?xml version="1.0" encoding="UTF-8" standalone="no"?>
<svg
   xmlns:dc="http://purl.org/dc/elements/1.1/"
   xmlns:cc="http://creativecommons.org/ns#"
   xmlns:rdf="http://www.w3.org/1999/02/22-rdf-syntax-ns#"
   xmlns:svg="http://www.w3.org/2000/svg"
   xmlns="http://www.w3.org/2000/svg"
   xmlns:sodipodi="http://sodipodi.sourceforge.net/DTD/sodipodi-0.dtd"
   xmlns:inkscape="http://www.inkscape.org/namespaces/inkscape"
   width="49mm"
   height="49mm"
   id="svg2985"
   version="1.1"
   inkscape:version="1.0.2 (e86c870879, 2021-01-15)"
   sodipodi:docname="RebelCircular.svg"
   inkscape:export-filename="/home/mars/devel/RebelTechnology/drawings/DiscourseLogo.png"
   inkscape:export-xdpi="90"
   inkscape:export-ydpi="90">
  <defs
     id="defs2987" />
  <sodipodi:namedview
     inkscape:document-units="mm"
     pagecolor="#ffffff"
     bordercolor="#666666"
     borderopacity="1.0"
     inkscape:pageopacity="0.0"
     inkscape:pageshadow="2"
     inkscape:zoom="2.6004289"
     inkscape:cx="-13.07597"
     inkscape:cy="66.141703"
     inkscape:current-layer="layer1"
     id="namedview2989"
     showgrid="false"
     inkscape:window-width="1920"
     inkscape:window-height="1016"
     inkscape:window-x="0"
     inkscape:window-y="0"
     inkscape:window-maximized="1"
     units="px"
     inkscape:document-rotation="0" />
  <metadata
     id="metadata2991">
    <rdf:RDF>
      <cc:Work
         rdf:about="">
        <dc:format>image/svg+xml</dc:format>
        <dc:type
           rdf:resource="http://purl.org/dc/dcmitype/StillImage" />
        <dc:title />
      </cc:Work>
    </rdf:RDF>
  </metadata>
  <g
     inkscape:label="Layer 1"
     inkscape:groupmode="layer"
     id="layer1"
     transform="translate(0,-608.50393)">
    <circle
       style="opacity:1;fill:#ffffff;fill-opacity:1;stroke:none;stroke-width:0.288919;stroke-linejoin:round;stroke-miterlimit:4;stroke-dasharray:none"
       id="path863"
       cx="92.598427"
       cy="701.10236"
       r="92.453964" />
    <g
       id="g3882"
       transform="matrix(0.16050559,0,0,0.16050559,21.467168,630.01223)"
       style="stroke:#000000;stroke-width:7.41192436;stroke-miterlimit:4;stroke-dasharray:none;stroke-opacity:1">
      <path
         style="fill:none;stroke:#000000;stroke-width:7.41192436;stroke-miterlimit:4;stroke-dasharray:none;stroke-opacity:1"
         d="m 862.72622,442.91337 c 0,231.02241 -187.95659,418.30305 -419.81284,418.30305 -231.85625,0 -419.812859,-187.28064 -419.812859,-418.30305 0,-231.02237 187.956609,-418.303035 419.812859,-418.303035 231.85625,0 419.81284,187.280665 419.81284,418.303035 z"
         id="ellipse10146"
         inkscape:connector-curvature="0" />
      <path
         d="m 720.71351,438.57711 c 0,153.39593 -124.34452,277.74045 -277.74746,277.74045 -153.39593,0 -277.75098,-124.34452 -277.75098,-277.74045 0,-153.40645 124.35856,-277.75098 277.75098,-277.75098 153.40294,0 277.74746,124.34453 277.74746,277.75098 z"
         id="path10148"
         inkscape:connector-curvature="0"
         style="fill:none;stroke:#000000;stroke-width:7.41192436;stroke-miterlimit:4;stroke-dasharray:none;stroke-opacity:1" />
      <path
         style="fill:none;stroke:#000000;stroke-width:7.41192436;stroke-miterlimit:4;stroke-dasharray:none;stroke-opacity:1"
         d="m 720.71354,440.6487 c 0,66.48429 -124.35178,120.38042 -277.74746,120.38042 -153.39568,0 -277.74743,-53.89613 -277.74743,-120.38042 0,-66.48425 124.35175,-120.3804 277.74743,-120.3804 153.39568,0 277.74746,53.89615 277.74746,120.3804 z"
         id="ellipse10150"
         inkscape:connector-curvature="0" />
      <path
         style="fill:none;stroke:#000000;stroke-width:7.41192436;stroke-miterlimit:4;stroke-dasharray:none;stroke-opacity:1"
         d="m 860.65818,440.64168 c 0,97.23556 -187.48185,176.06055 -418.75247,176.06055 -231.27062,0 -418.752487,-78.82499 -418.752487,-176.06055 0,-97.23553 187.481867,-176.06051 418.752487,-176.06051 231.27062,0 418.75247,78.82498 418.75247,176.06051 z"
         id="ellipse10152"
         inkscape:connector-curvature="0" />
      <path
         d="M 712.93047,299.16617 C 818.85657,504.42557 787.36326,733.91202 642.56421,811.7476 497.76517,889.56914 294.52082,786.27057 188.59128,581.01819 82.661739,375.7588 114.16536,146.26532 258.96096,68.429748 403.76002,-9.3952951 606.99749,93.913818 712.93047,299.16617 Z"
         id="path10154"
         inkscape:connector-curvature="0"
         style="fill:none;stroke:#000000;stroke-width:7.41192436;stroke-miterlimit:4;stroke-dasharray:none;stroke-opacity:1" />
      <path
         d="M 667.77914,146.90436 C 851.20257,286.86303 899.24238,532.227 775.09449,694.9205 650.92201,857.62804 401.59395,876.06167 218.17754,736.0749 34.768134,596.11621 -13.278695,350.75226 110.8692,188.05876 235.02763,25.358249 484.36974,6.9316379 667.77914,146.90436 Z"
         id="path10156"
         inkscape:connector-curvature="0"
         style="fill:none;stroke:#000000;stroke-width:7.41192436;stroke-miterlimit:4;stroke-dasharray:none;stroke-opacity:1" />
      <path
         style="fill:none;stroke:#000000;stroke-width:7.41192436;stroke-miterlimit:4;stroke-dasharray:none;stroke-opacity:1"
         d="M 552.83047,270.11125 334.33401,610.59277"
         id="line10158"
         inkscape:connector-curvature="0" />
      <path
         style="fill:none;stroke:#000000;stroke-width:7.41192436;stroke-miterlimit:4;stroke-dasharray:none;stroke-opacity:1"
         d="M 108.56588,332.01663 773.14934,548.68037"
         id="line10160"
         inkscape:connector-curvature="0" />
      <path
         style="fill:none;stroke:#000000;stroke-width:7.41192436;stroke-miterlimit:4;stroke-dasharray:none;stroke-opacity:1"
         d="M 773.14934,548.68037 39.374822,393.92207"
         id="line10162"
         inkscape:connector-curvature="0" />
      <path
         style="fill:none;stroke:#000000;stroke-width:7.41192436;stroke-miterlimit:4;stroke-dasharray:none;stroke-opacity:1"
         d="m 39.374822,393.92207 808.135358,91.9898"
         id="line10164"
         inkscape:connector-curvature="0" />
      <path
         style="fill:none;stroke:#000000;stroke-width:7.41192436;stroke-miterlimit:4;stroke-dasharray:none;stroke-opacity:1"
         d="M 442.96952,438.57714 443.591,55.797326"
         id="line10166"
         inkscape:connector-curvature="0" />
      <path
         style="fill:none;stroke:#000000;stroke-width:7.41192436;stroke-miterlimit:4;stroke-dasharray:none;stroke-opacity:1"
         d="M 443.591,55.797326 570.23533,130.91277"
         id="line10168"
         inkscape:connector-curvature="0" />
      <path
         style="fill:none;stroke:#000000;stroke-width:7.41192436;stroke-miterlimit:4;stroke-dasharray:none;stroke-opacity:1"
         d="m 570.23533,129.0185 29.93271,-25.65258"
         id="line10170"
         inkscape:connector-curvature="0" />
      <path
         style="fill:none;stroke:#000000;stroke-width:7.41192436;stroke-miterlimit:4;stroke-dasharray:none;stroke-opacity:1"
         d="M 600.16804,103.36592 443.04326,56.333777"
         id="line10172"
         inkscape:connector-curvature="0" />
      <path
         style="fill:none;stroke:#000000;stroke-width:7.41192436;stroke-miterlimit:4;stroke-dasharray:none;stroke-opacity:1"
         d="M 600.16804,103.36592 729.5125,203.85196"
         id="line10174"
         inkscape:connector-curvature="0" />
      <path
         style="fill:none;stroke:#000000;stroke-width:7.41192436;stroke-miterlimit:4;stroke-dasharray:none;stroke-opacity:1"
         d="m 729.5125,203.85196 -50.24837,41.68112"
         id="line10176"
         inkscape:connector-curvature="0" />
      <path
         style="fill:none;stroke:#000000;stroke-width:7.41192436;stroke-miterlimit:4;stroke-dasharray:none;stroke-opacity:1"
         d="M 679.26413,245.53308 570.23533,129.0185"
         id="line10178"
         inkscape:connector-curvature="0" />
      <path
         style="fill:none;stroke:#000000;stroke-width:7.41192436;stroke-miterlimit:4;stroke-dasharray:none;stroke-opacity:1"
         d="m 679.26413,245.53308 71.6244,147.5112"
         id="line10180"
         inkscape:connector-curvature="0" />
      <path
         style="fill:none;stroke:#000000;stroke-width:7.41192436;stroke-miterlimit:4;stroke-dasharray:none;stroke-opacity:1"
         d="m 750.05,393.04428 64.70581,-54.5144"
         id="line10182"
         inkscape:connector-curvature="0" />
      <path
         style="fill:none;stroke:#000000;stroke-width:7.41192436;stroke-miterlimit:4;stroke-dasharray:none;stroke-opacity:1"
         d="M 814.75581,338.52988 729.5125,203.85196"
         id="line10184"
         inkscape:connector-curvature="0" />
      <path
         style="fill:none;stroke:#000000;stroke-width:7.41192436;stroke-miterlimit:4;stroke-dasharray:none;stroke-opacity:1"
         d="m 442.96952,438.57714 357.08941,6.83976"
         id="line10186"
         inkscape:connector-curvature="0" />
      <path
         style="fill:none;stroke:#000000;stroke-width:7.41192436;stroke-miterlimit:4;stroke-dasharray:none;stroke-opacity:1"
         d="m 800.05893,445.4169 47.53117,40.33418"
         id="line10188"
         inkscape:connector-curvature="0" />
      <path
         style="fill:none;stroke:#000000;stroke-width:7.41192436;stroke-miterlimit:4;stroke-dasharray:none;stroke-opacity:1"
         d="m 820.37803,365.55175 -1.09201,119.41842"
         id="line10190"
         inkscape:connector-curvature="0" />
      <path
         style="fill:none;stroke:#000000;stroke-width:7.41192436;stroke-miterlimit:4;stroke-dasharray:none;stroke-opacity:1"
         d="m 819.28602,484.97015 -67.32308,55.58186"
         id="line10192"
         inkscape:connector-curvature="0" />
      <path
         style="fill:none;stroke:#000000;stroke-width:7.41192436;stroke-miterlimit:4;stroke-dasharray:none;stroke-opacity:1"
         d="M 751.96294,540.55201 750.88853,393.04428"
         id="line10194"
         inkscape:connector-curvature="0" />
      <path
         style="fill:none;stroke:#000000;stroke-width:7.41192436;stroke-miterlimit:4;stroke-dasharray:none;stroke-opacity:1"
         d="m 750.88853,393.04428 25.65954,152.85173"
         id="line10196"
         inkscape:connector-curvature="0" />
      <path
         style="fill:none;stroke:#000000;stroke-width:7.41192436;stroke-miterlimit:4;stroke-dasharray:none;stroke-opacity:1"
         d="m 776.54807,545.89601 42.73795,-60.92586"
         id="line10198"
         inkscape:connector-curvature="0" />
      <path
         style="fill:none;stroke:#000000;stroke-width:7.41192436;stroke-miterlimit:4;stroke-dasharray:none;stroke-opacity:1"
         d="M 800.05893,445.4169 776.54807,545.89601"
         id="line10200"
         inkscape:connector-curvature="0" />
      <path
         style="fill:#030303;stroke:#000000;stroke-width:7.41192436;stroke-miterlimit:4;stroke-dasharray:none;stroke-opacity:1"
         inkscape:connector-curvature="0"
         id="path11606"
         d="M 322.01212,506.21048" />
    </g>
    <rect
       style="fill:#ffffff;fill-opacity:1;stroke:none;stroke-width:1.05324197;stroke-miterlimit:4;stroke-dasharray:none;stroke-opacity:1"
       id="rect881"
       width="147.40216"
       height="64.72731"
       x="18.897343"
       y="667.11322" />
    <path
       style="fill:#000000;stroke-width:0.43850434"
       d="m 77.158465,729.19488 c -0.227482,-0.96768 -0.591637,-5.65218 -0.809269,-10.40999 l -0.3957,-8.65056 h -6.946571 -6.94657 v -4.69181 -4.69181 h 7.037757 7.037743 v -2.34595 -2.34589 h -7.037743 -7.037757 v -8.50399 -8.50393 h 4.691827 4.691829 v 3.51893 3.51887 h 2.345914 2.34593 v -5.86484 -5.86476 h -9.33042 -9.330375 l -0.236395,25.07195 c -0.143826,15.26092 -0.471838,25.62935 -0.838064,26.49629 -1.015783,2.40475 -1.377974,-5.70041 -1.377974,-30.83672 v -23.07744 h 11.72957 11.729571 v 8.21068 8.21071 H 73.78994 69.098112 v -3.51884 -3.51891 h -2.345915 -2.345915 v 6.15801 6.15802 h 7.037744 7.037742 v 4.69186 4.69183 h -7.037742 -7.037744 v 2.34593 2.34589 h 7.037744 7.037742 l -0.05801,8.35737 c -0.03157,4.59652 -0.236575,9.8088 -0.454857,11.5829 -0.355317,2.88801 -0.44016,3.04147 -0.810433,1.4662 z m 59.234315,0 c -0.22747,-0.96768 -0.59163,-5.65218 -0.80926,-10.40999 l -0.39571,-8.65056 h -6.94656 -6.94658 v -4.69181 -4.69181 h 7.03775 7.03774 v -2.34595 -2.34589 h -7.03774 -7.03775 v -8.50399 -8.50393 h 4.69184 4.69182 v 3.51893 3.51887 h 2.34594 2.34589 v -5.86484 -5.86476 h -9.33038 -9.33041 l -0.23639,25.07195 c -0.14387,15.26092 -0.47182,25.62935 -0.83806,26.49629 -1.01578,2.40475 -1.37797,-5.70041 -1.37797,-30.83672 v -23.07744 h 11.72957 11.72956 v 8.21068 8.21071 h -4.69181 -4.69185 v -3.51884 -3.51891 h -2.34591 -2.34591 v 6.15801 6.15802 h 7.03773 7.03775 v 4.69186 4.69183 h -7.03775 -7.03773 v 2.34593 2.34589 h 7.03773 7.03775 l -0.0581,8.35737 c -0.0317,4.59652 -0.2366,9.8088 -0.45488,11.5829 -0.35531,2.88801 -0.44015,3.04147 -0.81043,1.4662 z m -51.658066,-3.50255 c -0.213507,-2.52553 -0.388177,-15.63652 -0.388177,-29.13549 v -24.54361 h 11.729573 11.72956 v 11.72957 c 0,6.45124 -0.19791,11.73092 -0.43985,11.73254 -0.24194,0.001 -1.48712,0.63693 -2.7671,1.41172 l -2.32725,1.40857 2.7671,1.34439 2.7671,1.34439 -0.0581,9.12017 c -0.0317,5.01607 -0.24033,10.57168 -0.46329,12.34579 -0.40393,3.21475 -0.40693,3.21872 -0.89816,1.18374 -0.27109,-1.1231 -0.6564,-6.40137 -0.85628,-11.7296 l -0.36338,-9.68767 -3.33551,-1.77156 c -1.834541,-0.97436 -3.515124,-1.95116 -3.734614,-2.17071 -0.219552,-0.21953 1.347444,-1.26033 3.482124,-2.31298 l 3.88128,-1.9139 v -9.84425 -9.84429 h -9.33266 -9.332638 l -0.231148,26.53814 c -0.142613,16.37195 -0.462791,27.08384 -0.835812,27.96252 -0.510771,1.20321 -0.664908,0.71154 -0.992792,-3.16748 z m 59.234296,0 c -0.2135,-2.52553 -0.38817,-15.63652 -0.38817,-29.13549 v -24.54361 h 4.69182 4.69184 v 17.88762 17.88756 h 3.51889 3.51884 l -0.004,4.25197 c -0.006,5.93711 -0.66773,12.32008 -1.21942,11.75932 -0.25414,-0.25842 -0.64818,-3.43862 -0.87569,-7.06749 l -0.41365,-6.59788 h -3.43538 -3.43541 v -17.88757 -17.88761 h -2.29487 -2.2949 l -0.23118,26.53814 c -0.14256,16.37195 -0.4628,27.08384 -0.83583,27.96252 -0.51077,1.20321 -0.6649,0.71154 -0.99279,-3.16748 z M 25.500375,721.58695 c -0.213509,-2.5255 -0.38816,-14.71275 -0.38816,-27.08281 v -22.49091 h 11.729568 11.729573 v 15.23717 15.23722 l -2.78384,1.4148 -2.783806,1.41474 2.783806,1.3525 2.78384,1.35248 -0.05801,5.89455 c -0.03157,3.24196 -0.245989,7.34609 -0.475782,9.12022 -0.407589,3.14696 -0.427847,3.17556 -0.830964,1.17292 -0.227285,-1.12898 -0.60697,-4.95572 -0.843804,-8.50394 l -0.430611,-6.45125 -3.335518,-1.77164 c -1.83454,-0.97432 -3.515109,-1.95115 -3.734614,-2.17061 -0.219537,-0.21955 1.347457,-1.26039 3.482147,-2.31305 l 3.881227,-1.91395 V 687.72231 674.35915 H 36.89599 27.566538 l -0.238617,24.48547 c -0.144417,14.81579 -0.47572,25.04796 -0.839016,25.9098 -0.505753,1.19987 -0.661568,0.70063 -0.988544,-3.16747 z m 7.031321,-0.66242 c -0.209943,-2.48374 -0.381726,-6.47341 -0.381726,-8.86592 v -4.35004 l 4.69124,2.53249 c 4.661992,2.51663 4.691225,2.54707 4.687675,4.87834 -0.0059,4.11162 -0.732753,10.23924 -1.181041,9.96222 -0.238056,-0.14698 -0.618226,-2.74019 -0.844801,-5.76238 l -0.411969,-5.49487 -2.024255,-0.96529 c -1.113345,-0.53094 -2.108401,-0.96528 -2.211219,-0.96528 -0.102733,0 -0.370336,2.83641 -0.59448,6.30318 -0.224112,3.46676 -0.619055,6.51475 -0.877597,6.77331 -0.258558,0.25882 -0.641869,-1.56207 -0.851827,-4.04576 z m 58.8526,-15.48856 v -4.6984 l 4.691814,2.35902 c 4.68635,2.35628 4.69184,2.36172 4.69184,4.69839 v 2.33935 h -4.69184 -4.691814 z m 7.037726,1.8746 c 0,-0.41528 -3.670924,-2.45455 -4.418481,-2.45455 -0.150316,0 -0.273331,0.65978 -0.273331,1.46621 0,1.3196 0.234613,1.46618 2.345914,1.46618 1.290249,0 2.345914,-0.21506 2.345914,-0.47784 z m -66.272066,-16.53 v -11.72962 h 4.691827 4.691831 v 9.33064 9.33065 l -4.370972,2.39894 c -2.404015,1.31941 -4.515346,2.39893 -4.691812,2.39893 -0.176479,0 -0.320889,-5.27826 -0.320889,-11.72954 z m 7.037742,-1.77136 v -7.61234 H 36.841783 34.49587 v 8.80913 8.80908 l 2.345913,-1.1968 2.345915,-1.19677 z m 52.196598,-1.74098 v -8.21728 h 4.691814 4.69184 v 5.85826 5.85824 l -4.69184,2.35901 -4.691814,2.35901 z m 7.037726,-1.77791 v -4.09345 H 96.07611 93.730195 v 5.29026 5.29024 l 2.345915,-1.1968 2.345912,-1.19682 z"
       id="path3810"
       inkscape:connector-curvature="0"
       sodipodi:nodetypes="cscccccccccccccccccccccccsssccccccccccccccccccccccccsccscccccccccccccccccccccccscsccccccccccccccccccccccccccsscccsccccccccccccscccccscscscccccccccccccccccscccssccccccccccssccscscccccscsssccccccssccsccssccccssssssccccccssccccccccccccccccccccccccccc" />
  </g>
</svg>
