<?xml version="1.0" encoding="UTF-8" standalone="no"?>
<svg
   xmlns:dc="http://purl.org/dc/elements/1.1/"
   xmlns:cc="http://creativecommons.org/ns#"
   xmlns:rdf="http://www.w3.org/1999/02/22-rdf-syntax-ns#"
   xmlns:svg="http://www.w3.org/2000/svg"
   xmlns="http://www.w3.org/2000/svg"
   xmlns:sodipodi="http://sodipodi.sourceforge.net/DTD/sodipodi-0.dtd"
   xmlns:inkscape="http://www.inkscape.org/namespaces/inkscape"
   width="25mm"
   height="10mm"
   viewBox="0 0 25 10"
   version="1.1"
   id="svg1714"
   inkscape:version="1.0.2 (e86c870879, 2021-01-15)"
   sodipodi:docname="WitchLogo.svg">
  <defs
     id="defs1708">
    <filter
       id="filter5645"
       style="color-interpolation-filters:sRGB"
       inkscape:collect="always">
      <feBlend
         id="feBlend5647"
         in2="BackgroundImage"
         mode="color"
         inkscape:collect="always" />
    </filter>
  </defs>
  <sodipodi:namedview
     id="base"
     pagecolor="#ffffff"
     bordercolor="#666666"
     borderopacity="1.0"
     inkscape:pageopacity="0.0"
     inkscape:pageshadow="2"
     inkscape:zoom="14.492285"
     inkscape:cx="47.244096"
     inkscape:cy="18.897642"
     inkscape:document-units="mm"
     inkscape:current-layer="layer1"
     inkscape:document-rotation="0"
     showgrid="false"
     width="25mm"
     inkscape:window-width="1920"
     inkscape:window-height="1016"
     inkscape:window-x="0"
     inkscape:window-y="0"
     inkscape:window-maximized="1" />
  <metadata
     id="metadata1711">
    <rdf:RDF>
      <cc:Work
         rdf:about="">
        <dc:format>image/svg+xml</dc:format>
        <dc:type
           rdf:resource="http://purl.org/dc/dcmitype/StillImage" />
        <dc:title></dc:title>
      </cc:Work>
    </rdf:RDF>
  </metadata>
  <g
     inkscape:label="Layer 1"
     inkscape:groupmode="layer"
     id="layer1">
    <g
       aria-label="Witch"
       transform="matrix(0.28222223,0,0,0.28222223,-92.494912,-200.84622)"
       id="text6123"
       style="font-style:normal;font-weight:normal;font-size:11.25px;line-height:1.25;font-family:sans-serif;letter-spacing:0px;word-spacing:0px;display:inline;fill:#000000;fill-opacity:1;stroke:#000000;stroke-width:0.9375;filter:url(#filter5645)">
      <path
         d="m 367.8043,717.94552 q 0,1.65 -0.1375,9.9 -0.1375,8.525 -0.1925,8.745 -0.055,0.1925 -1.5125,1.0175 -1.4575,0.7975 -1.7875,0.88 l -0.495,-0.22 -0.1375,-0.5775 0.0825,-3.4375 h -0.165 q -1.5125,1.2925 -3.4375,2.3925 -2.3925,1.3475 -3.8225,1.3475 -2.2275,0 -3.74,-0.7425 -1.3475,-0.6875 -2.97,-2.42 l -0.0825,-0.0275 q -0.165,0 -1.1275,0.88 -1.1825,1.0725 -2.0625,1.595 -1.43,0.88 -2.695,0.88 -2.3375,0 -4.8125,-2.2275 -2.475,-2.255 -2.475,-4.5925 0,-2.9425 0.6325,-4.7025 0.5225,-1.43 1.8975,-2.915 1.5675,-1.595 3.135,-3.2175 0.1375,-0.1925 -0.7425,-0.33 -1.1275,-0.0825 -3.3275,-0.5225 l -0.11,-0.165 2.585,-2.75 q 0.77,0 3.1075,0.275 2.475,0.3025 2.97,0.4675 l 0.1925,0.3575 q -0.385,0.77 -2.3375,2.09 -2.09,1.43 -2.9975,2.75 -1.5125,2.145 -1.5125,5.445 0,2.7225 2.0075,4.73 2.035,1.98 4.8125,1.98 1.265,0 2.31,-0.77 l 0.3025,-0.605 q -0.5225,-1.925 -0.5225,-2.6125 0,-3.3825 1.5125,-5.8025 0.77,-1.265 3.8775,-4.51 l 0.1925,-0.2475 -0.0825,-0.11 -2.9425,-0.7425 q -0.9625,-0.2475 -0.9625,-0.33 0.605,-1.4575 2.8325,-2.6125 0.0825,-0.055 0.22,0.055 0.165,0.11 0.1925,0.11 1.65,0.33 5.005,1.1 l 0.0825,0.0825 q 0,0.0825 -0.2475,0.275 -1.265,0.99 -3.685,3.2175 -2.5025,2.695 -2.5025,7.425 0,3.08 1.7875,4.84 1.7875,1.7325 4.895,1.7325 3.1625,0 4.4275,-3.08 0.88,-2.2 0.88,-6.325 0,-0.7975 -0.0275,-2.09 -0.0275,-1.32 -0.0275,-1.7875 0,-0.22 -0.11,-1.1275 -0.0825,-0.935 -0.0825,-1.43 0,-0.7425 0.1925,-0.99 0.6875,-0.1925 1.705,-0.77 0.7975,-0.44 1.6225,-0.9075 0.11,-0.055 0.4125,0.1925 z"
         style="font-style:normal;font-variant:normal;font-weight:normal;font-stretch:normal;font-size:27.5px;font-family:'Typographer Uncialgotisch';-inkscape-font-specification:'Typographer Uncialgotisch';fill:#000000;stroke:#000000;stroke-width:0.9375"
         id="path2311" />
      <path
         d="m 377.09543,716.73552 -2.6675,2.75 q -0.715,0.5225 -2.0625,1.6775 -0.3575,0.3575 -0.77,0.3575 v -0.11 q 0.2475,-0.3025 0.77,-0.9075 0.7425,-0.77 2.3375,-2.1725 2.0075,-1.7325 2.3925,-1.7325 z m 0,18.8925 q -2.53,2.53 -2.6675,2.5025 -0.6325,-0.1925 -1.7325,-0.77 -1.265,-0.66 -1.5125,-1.0175 0.0825,-0.385 0.495,-1.2925 0.33,-0.7425 0.33,-1.485 v -8.0025 q -0.605,-0.55 -1.32,-1.4025 0.22,-0.495 1.2925,-1.32 0.99,-0.77 1.595,-0.935 0.4675,0.1925 1.375,0.77 1.0175,0.6325 1.2375,0.935 0.055,0.165 -0.8525,0.9625 -0.165,0.66 -0.165,1.4575 0,1.2375 -0.0825,3.7125 -0.0825,2.4475 -0.0825,3.685 0,0.935 0.55,1.3475 0.2475,0.22 0.99,0.4125 0.55,0.1375 0.55,0.4125 z"
         style="font-style:normal;font-variant:normal;font-weight:normal;font-stretch:normal;font-size:27.5px;font-family:'Typographer Uncialgotisch';-inkscape-font-specification:'Typographer Uncialgotisch';fill:#000000;stroke:#000000;stroke-width:0.9375"
         id="path2313" />
      <path
         d="m 386.76641,722.78552 c 0,0.20167 -0.33,0.66 -0.99,1.375 -0.64167,0.715 -1.06333,1.08167 -1.265,1.1 l -1.65,0.165 c -0.22,0.12833 -0.33,1.3475 -0.33,3.6575 0,0.14667 -0.0183,0.495 -0.055,1.045 -0.0183,0.55 -0.0275,1.00833 -0.0275,1.375 0,2.54833 0.73333,3.8225 2.2,3.8225 0.055,0 0.15583,-0.0275 0.3025,-0.0825 0.165,-0.0733 0.275,-0.10083 0.33,-0.0825 -0.165,0.44 -0.59583,1.00833 -1.2925,1.705 -0.67833,0.69667 -1.2375,1.1275 -1.6775,1.2925 -0.385,-0.0733 -0.95333,-0.32083 -1.705,-0.7425 -0.75167,-0.42167 -1.25583,-0.77917 -1.5125,-1.0725 0.40333,-1.55833 0.605,-2.78667 0.605,-3.685 0,-3.42833 0.009,-4.8125 0.0275,-4.1525 -0.0367,-2.035 -0.165,-3.11667 -0.385,-3.245 -0.47667,0.055 -0.94417,0 -1.4025,-0.165 v -0.165 c 0.12833,-0.23833 0.80667,-0.99917 2.035,-2.2825 1.24667,-1.30167 2.0075,-2.04417 2.2825,-2.2275 h 0.055 c 0.0367,0 0.0917,0.0275 0.165,0.0825 0,1.19167 -0.009,1.54917 -0.0275,1.0725 0.0183,0.55 0.12833,0.88917 0.33,1.0175 0.97065,0.0288 1.96443,-0.0469 2.64,-0.0825 0.715,-0.0183 1.155,0 1.32,0.055 z"
         style="font-style:normal;font-variant:normal;font-weight:normal;font-stretch:normal;font-size:27.5px;font-family:'Typographer Uncialgotisch';-inkscape-font-specification:'Typographer Uncialgotisch';fill:#000000;stroke:#000000;stroke-width:0.9375"
         id="path2315"
         sodipodi:nodetypes="ccccscssccccscsccccccscccccc" />
      <path
         d="m 396.00856,723.19802 q 0,0.3025 -0.9625,1.265 -0.9625,0.9625 -1.1275,0.9625 -0.5775,0 -1.43,-0.33 -0.935,-0.385 -1.4025,-0.44 l -0.2475,0.1925 q -0.1375,1.265 -0.165,3.355 -0.0275,2.53 -0.0825,3.3825 -0.0275,0.3575 -0.22,1.0725 -0.1925,0.715 -0.1925,1.1275 0,0.33 2.1175,0.935 1.2925,0.3575 2.6125,0.6875 0.3575,0.165 0.3575,0.22 v 0.0275 q -0.4125,0.5225 -1.4025,1.43 -1.155,1.0725 -1.485,1.0725 -0.2475,0 -2.75,-0.9075 -2.475,-0.9075 -2.6125,-1.045 0.66,-3.795 0.66,-7.15 0,0.275 -0.0825,-2.475 -0.055,-1.705 0.0825,-2.3375 0.1375,-0.165 1.98,-1.265 1.87,-1.1275 2.035,-1.1275 0.5775,0 2.09,0.4675 1.375,0.44 2.0625,0.77 0.165,0.0825 0.165,0.11 z"
         style="font-style:normal;font-variant:normal;font-weight:normal;font-stretch:normal;font-size:27.5px;font-family:'Typographer Uncialgotisch';-inkscape-font-specification:'Typographer Uncialgotisch';fill:#000000;stroke:#000000;stroke-width:0.9375"
         id="path2317" />
      <path
         d="m 407.82411,723.41802 q -0.2475,0.935 -0.33,2.0625 -0.055,0.825 -0.0275,2.09 0.0275,2.035 0.0275,2.145 0,3.4375 -0.1375,4.675 -0.3025,2.7225 -1.4025,4.4 -0.44,0.495 -1.1275,1.485 -0.2475,0.4675 -1.1,1.21 -0.825,0.7425 -1.265,0.7975 0.6875,-1.595 1.3475,-3.1625 0.44,-1.155 0.44,-4.015 0,-1.1 -0.055,-4.7025 -0.055,-2.915 -0.0275,-4.7025 -0.22,-0.1925 -1.6225,-0.6325 -1.4025,-0.44 -1.815,-0.44 l -0.165,0.2475 q -0.2475,0.6325 -0.2475,8.4975 v 0.7425 q 0.1375,0.1375 1.045,0.77 0.715,0.495 0.825,0.825 l -0.0275,0.165 q -0.6325,0.6325 -1.2925,1.265 -0.825,0.77 -1.43,0.99 -0.55,-0.22 -1.595,-0.935 -1.045,-0.7425 -1.265,-1.155 0.66,-1.595 0.66,-5.005 v -4.51 l -0.0825,-7.645 q 0.33,-0.4125 1.43,-1.155 1.1,-0.77 1.54,-0.77 0.275,0 0.3575,0.165 -0.11,6.2425 0.3025,6.435 0.2475,-0.055 1.2375,-0.825 0.99,-0.77 1.2925,-0.77 0.55,0 2.365,0.5775 1.8425,0.55 2.145,0.88 z"
         style="font-style:normal;font-variant:normal;font-weight:normal;font-stretch:normal;font-size:27.5px;font-family:'Typographer Uncialgotisch';-inkscape-font-specification:'Typographer Uncialgotisch';fill:#000000;stroke:#000000;stroke-width:0.9375"
         id="path2319" />
    </g>
  </g>
</svg>
